# Wavefront Obj file
# 
# verts: 256 uv-s: 596
mtllib road info.mtl

g Cylinder006

v 0.871110 95.814552 0.000018
v 0.435553 96.568962 0.000018
v -0.435561 96.568962 0.000018
v -0.871118 95.814552 0.000018
v -0.435561 95.060143 0.000018
v 0.435553 95.060143 0.000018
v 0.871110 95.814552 0.847018
v 0.435553 96.568962 0.847018
v -0.435561 96.568962 0.847018
v -0.871118 95.814552 0.847018
v -0.435561 95.060143 0.847018
v 0.435553 95.060143 0.847018
v -5.817503 95.814552 0.000018
v -6.253060 96.568962 0.000018
v -7.124175 96.568962 0.000018
v -7.559732 95.814552 0.000018
v -7.124175 95.060143 0.000018
v -6.253061 95.060143 0.000018
v -5.817503 95.814552 0.847018
v -6.253060 96.568962 0.847018
v -7.124175 96.568962 0.847018
v -7.559732 95.814552 0.847018
v -7.124175 95.060143 0.847018
v -6.253061 95.060143 0.847018
v 0.871110 50.668495 0.000018
v 0.435553 51.422901 0.000019
v -0.435561 51.422901 0.000019
v -0.871118 50.668495 0.000018
v -0.435561 49.914089 0.000018
v 0.435553 49.914089 0.000018
v 0.871110 50.668495 0.847018
v 0.435553 51.422901 0.847018
v -0.435561 51.422901 0.847018
v -0.871118 50.668495 0.847018
v -0.435561 49.914089 0.847018
v 0.435553 49.914089 0.847018
v -5.817503 50.668495 0.000018
v -6.253060 51.422901 0.000019
v -7.124175 51.422901 0.000019
v -7.559732 50.668495 0.000018
v -7.124175 49.914089 0.000018
v -6.253061 49.914089 0.000018
v -5.817503 50.668495 0.847018
v -6.253060 51.422901 0.847018
v -7.124175 51.422901 0.847018
v -7.559732 50.668495 0.847018
v -7.124175 49.914089 0.847018
v -6.253061 49.914089 0.847018
v -125.701080 95.814552 0.000018
v -126.136642 96.568962 0.000018
v -127.007751 96.568962 0.000018
v -127.443314 95.814552 0.000018
v -127.007751 95.060143 0.000018
v -126.136642 95.060143 0.000018
v -125.701080 95.814552 0.847018
v -126.136642 96.568962 0.847018
v -127.007751 96.568962 0.847018
v -127.443314 95.814552 0.847018
v -127.007751 95.060143 0.847018
v -126.136642 95.060143 0.847018
v -119.012466 95.814552 0.000018
v -119.448029 96.568962 0.000018
v -120.319138 96.568962 0.000018
v -120.754700 95.814552 0.000018
v -120.319138 95.060143 0.000018
v -119.448029 95.060143 0.000018
v -119.012466 95.814552 0.847018
v -119.448029 96.568962 0.847018
v -120.319138 96.568962 0.847018
v -120.754700 95.814552 0.847018
v -120.319138 95.060143 0.847018
v -119.448029 95.060143 0.847018
v -125.701080 50.668495 0.000018
v -126.136642 51.422901 0.000019
v -127.007751 51.422901 0.000019
v -127.443314 50.668495 0.000018
v -127.007751 49.914089 0.000018
v -126.136642 49.914089 0.000018
v -125.701080 50.668495 0.847018
v -126.136642 51.422901 0.847018
v -127.007751 51.422901 0.847018
v -127.443314 50.668495 0.847018
v -127.007751 49.914089 0.847018
v -126.136642 49.914089 0.847018
v -119.012466 50.668495 0.000018
v -119.448029 51.422901 0.000019
v -120.319138 51.422901 0.000019
v -120.754700 50.668495 0.000018
v -120.319138 49.914089 0.000018
v -119.448029 49.914089 0.000018
v -119.012466 50.668495 0.847018
v -119.448029 51.422901 0.847018
v -120.319138 51.422901 0.847018
v -120.754700 50.668495 0.847018
v -120.319138 49.914089 0.847018
v -119.448029 49.914089 0.847018
v -134.402283 32.851391 -2.130969
v 7.888512 32.851391 -2.130969
v -142.660217 119.743736 -2.130958
v 16.146446 119.743736 -2.130958
v -134.402283 32.851391 0.000077
v 16.146446 41.109318 0.000079
v -142.660217 119.743736 0.000089
v 7.888512 128.001663 0.000090
v -142.660217 41.109318 -2.130968
v 16.146446 41.109318 -2.130968
v -134.402283 128.001663 -2.130956
v 7.888512 128.001663 -2.130956
v -142.660217 41.109318 0.000079
v 7.888512 32.851391 0.000077
v -134.402283 128.001663 0.000090
v 16.146446 119.743736 0.000089
v -140.595734 34.915871 -2.130969
v 14.081963 34.915871 -2.130969
v -140.595734 125.937180 -2.130957
v 14.081963 125.937180 -2.130957
v -140.595734 34.915871 0.000078
v 14.081963 34.915871 0.000078
v -140.595734 125.937180 0.000090
v 14.081963 125.937180 0.000090
v -134.402267 41.109318 0.000079
v -134.402267 119.743736 0.000089
v 7.888512 119.743736 0.000089
v 7.888512 41.109318 0.000079
v -134.402267 41.109318 -2.130968
v -134.402267 119.743736 -2.130958
v 7.888512 119.743736 -2.130958
v 7.888512 41.109318 -2.130968
v -125.019348 -63.128197 -2.200362
v -121.494431 -63.128197 -2.200362
v -125.019348 -63.128197 -5.464533
v -121.494431 -63.128197 -5.464533
v -125.019333 101.914154 -2.200362
v -121.494431 101.914154 -2.200362
v -125.019333 101.914154 -5.464534
v -121.494431 101.914154 -5.464534
v -5.019344 -63.128197 -2.200362
v -1.494427 -63.128197 -2.200362
v -5.019344 -63.128197 -5.464533
v -1.494427 -63.128197 -5.464533
v -5.019344 101.914154 -2.200362
v -1.494427 101.914154 -2.200362
v -5.019344 101.914154 -5.464534
v -1.494427 101.914154 -5.464534
v -129.411560 -72.518242 34.569801
v -117.102203 -72.518242 34.569801
v -129.411560 -72.518242 -42.234688
v -117.102203 -72.518242 -42.234688
v -126.600830 -63.128197 34.569801
v -119.912933 -63.128197 34.569801
v -126.600830 -63.128212 -42.234688
v -119.912933 -63.128212 -42.234688
v -9.411564 -72.518242 34.569801
v 2.897793 -72.518242 34.569801
v -9.411564 -72.518242 -42.234688
v 2.897793 -72.518242 -42.234688
v -6.600834 -63.128197 34.569801
v 0.087059 -63.128197 34.569801
v -6.600834 -63.128212 -42.234688
v 0.087059 -63.128212 -42.234688
v -121.440918 48.722702 -5.626534
v -125.085526 48.722702 -5.626535
v -121.003769 52.759308 -6.277328
v -121.440918 52.759308 -5.626534
v -125.085526 52.759308 -5.626534
v -125.522675 52.759308 -6.277328
v -121.003769 48.722702 -6.277328
v -125.522675 48.722702 -6.277329
v -121.003769 48.722702 -2.991544
v -121.003769 52.759312 -2.991542
v -121.440918 52.759312 -2.381180
v -125.085541 48.722702 -2.381182
v -125.085541 52.759312 -2.381180
v -125.522690 52.759312 -2.991543
v -125.522690 48.722702 -2.991544
v -121.440918 48.722702 -2.381182
v -118.365463 48.722702 -2.991541
v -118.365463 52.759312 -2.991539
v -118.365463 52.759312 -2.381177
v -118.365463 48.722702 -2.381180
v -128.160980 52.759312 -2.991545
v -128.160980 48.722702 -2.991547
v -128.160980 48.722702 -2.381185
v -128.160980 52.759312 -2.381183
v -1.322224 93.609993 -5.626534
v -4.966843 93.609993 -5.626535
v -0.885071 97.646614 -6.277327
v -1.322224 97.646614 -5.626533
v -4.966843 97.646614 -5.626534
v -5.403996 97.646614 -6.277328
v -0.885071 93.609993 -6.277328
v -5.403996 93.609993 -6.277329
v -0.885071 93.610001 -2.991543
v -0.885071 97.646614 -2.991542
v -1.322224 97.646614 -2.381181
v -4.966843 93.610001 -2.381182
v -4.966843 97.646614 -2.381181
v -5.403996 97.646614 -2.991544
v -5.403996 93.610001 -2.991545
v -1.322224 93.610001 -2.381182
v 1.753216 93.610001 -2.991541
v 1.753216 97.646614 -2.991540
v 1.753216 97.646614 -2.381178
v 1.753216 93.610001 -2.381180
v -8.042301 97.646614 -2.991546
v -8.042301 93.610001 -2.991547
v -8.042301 93.610001 -2.381185
v -8.042301 97.646614 -2.381183
v -121.440918 93.609993 -5.626534
v -125.085526 93.609993 -5.626535
v -121.003769 97.646614 -6.277327
v -121.440918 97.646614 -5.626533
v -125.085526 97.646614 -5.626534
v -125.522675 97.646614 -6.277328
v -121.003769 93.609993 -6.277328
v -125.522675 93.609993 -6.277329
v -121.003769 93.610001 -2.991543
v -121.003769 97.646614 -2.991541
v -121.440918 97.646614 -2.381181
v -125.085541 93.610001 -2.381181
v -125.085541 97.646614 -2.381181
v -125.522690 97.646614 -2.991544
v -125.522690 93.610001 -2.991545
v -121.440918 93.610001 -2.381182
v -118.365463 93.610001 -2.991541
v -118.365463 97.646614 -2.991540
v -118.365463 97.646614 -2.381178
v -118.365463 93.610001 -2.381180
v -128.160980 97.646614 -2.991546
v -128.160980 93.610001 -2.991547
v -128.160980 93.610001 -2.381185
v -128.160980 97.646614 -2.381183
v -1.322224 48.722702 -5.626534
v -4.966843 48.722702 -5.626535
v -0.885071 52.759308 -6.277328
v -1.322224 52.759308 -5.626534
v -4.966843 52.759308 -5.626534
v -5.403996 52.759308 -6.277328
v -0.885071 48.722702 -6.277328
v -5.403996 48.722702 -6.277329
v -0.885071 48.722702 -2.991544
v -0.885071 52.759312 -2.991542
v -1.322224 52.759312 -2.381180
v -4.966843 48.722702 -2.381182
v -4.966843 52.759312 -2.381180
v -5.403996 52.759312 -2.991543
v -5.403996 48.722702 -2.991544
v -1.322224 48.722702 -2.381182
v 1.753216 48.722702 -2.991541
v 1.753216 52.759312 -2.991539
v 1.753216 52.759312 -2.381177
v 1.753216 48.722702 -2.381180
v -8.042301 52.759312 -2.991545
v -8.042301 48.722702 -2.991547
v -8.042301 48.722702 -2.381185
v -8.042301 52.759312 -2.381183
# 256 positions

vt 0.991475 0.885288
vt 0.991475 0.932646
vt 0.991188 0.934467
vt 0.991188 0.989151
vt 0.991475 0.743053
vt 0.991475 0.790410
vt 0.991475 0.837768
vt 0.992417 0.686985
vt 0.992417 0.741669
vt 0.991475 0.837930
vt 0.938305 0.885288
vt 0.861556 0.709325
vt 0.938305 0.932646
vt 0.938018 0.934467
vt 0.896969 0.688879
vt 0.938018 0.989151
vt 0.938305 0.743053
vt 0.932382 0.709325
vt 0.938305 0.790410
vt 0.932382 0.750217
vt 0.938305 0.837768
vt 0.939246 0.686985
vt 0.896969 0.770662
vt 0.939246 0.741669
vt 0.938305 0.837930
vt 0.861556 0.750217
vt 0.992467 0.885345
vt 0.992467 0.932722
vt 0.992223 0.934430
vt 0.992223 0.989136
vt 0.992467 0.743053
vt 0.992467 0.790430
vt 0.992467 0.837806
vt 0.993430 0.686985
vt 0.993430 0.741691
vt 0.992467 0.837968
vt 0.939275 0.885345
vt 0.897741 0.770695
vt 0.939275 0.932722
vt 0.939031 0.934430
vt 0.862314 0.750241
vt 0.939031 0.989136
vt 0.939275 0.743053
vt 0.862314 0.709333
vt 0.939275 0.790430
vt 0.897741 0.688879
vt 0.939275 0.837806
vt 0.940238 0.686985
vt 0.933169 0.709333
vt 0.940238 0.741691
vt 0.939275 0.837968
vt 0.933169 0.750241
vt 0.992467 0.884332
vt 0.992467 0.931708
vt 0.992223 0.933417
vt 0.992223 0.988123
vt 0.992467 0.742039
vt 0.992467 0.789416
vt 0.992467 0.836793
vt 0.993430 0.685972
vt 0.993430 0.740678
vt 0.992467 0.836955
vt 0.939275 0.884332
vt 0.897741 0.769938
vt 0.939275 0.931708
vt 0.939031 0.933417
vt 0.862314 0.749484
vt 0.939031 0.988123
vt 0.939275 0.742039
vt 0.862314 0.708575
vt 0.939275 0.789416
vt 0.897741 0.688121
vt 0.939275 0.836793
vt 0.940238 0.685972
vt 0.933169 0.708575
vt 0.940238 0.740678
vt 0.939275 0.836955
vt 0.933169 0.749484
vt 0.992467 0.884332
vt 0.992467 0.931708
vt 0.992223 0.933417
vt 0.992223 0.988123
vt 0.992467 0.742039
vt 0.992467 0.789416
vt 0.992467 0.836793
vt 0.993430 0.685972
vt 0.993430 0.740678
vt 0.992467 0.836955
vt 0.939275 0.884332
vt 0.897741 0.769938
vt 0.939275 0.931708
vt 0.939031 0.933417
vt 0.862314 0.749484
vt 0.939031 0.988123
vt 0.939275 0.742039
vt 0.862314 0.708575
vt 0.939275 0.789416
vt 0.897741 0.688121
vt 0.939275 0.836793
vt 0.940238 0.685972
vt 0.933169 0.708575
vt 0.940238 0.740678
vt 0.939275 0.836955
vt 0.933169 0.749484
vt 0.993502 0.884274
vt 0.993502 0.931632
vt 0.994444 0.685972
vt 0.994444 0.740655
vt 0.993502 0.742039
vt 0.993502 0.789397
vt 0.993502 0.836755
vt 0.993215 0.933454
vt 0.993215 0.988137
vt 0.993502 0.836917
vt 0.940332 0.884274
vt 0.863071 0.708567
vt 0.940332 0.931632
vt 0.941273 0.685972
vt 0.898485 0.688121
vt 0.941273 0.740655
vt 0.940332 0.742039
vt 0.933898 0.708567
vt 0.940332 0.789397
vt 0.933898 0.749459
vt 0.940332 0.836755
vt 0.940045 0.933454
vt 0.898485 0.769904
vt 0.940045 0.988137
vt 0.940332 0.836917
vt 0.863072 0.749459
vt 0.992489 0.884274
vt 0.992489 0.931632
vt 0.993430 0.685972
vt 0.993430 0.740655
vt 0.992489 0.742039
vt 0.992489 0.789397
vt 0.992489 0.836755
vt 0.992201 0.933454
vt 0.992201 0.988137
vt 0.992489 0.836917
vt 0.939318 0.884274
vt 0.862314 0.708567
vt 0.939318 0.931632
vt 0.940260 0.685972
vt 0.897727 0.688121
vt 0.940260 0.740655
vt 0.939318 0.742039
vt 0.933140 0.708567
vt 0.939318 0.789397
vt 0.933140 0.749459
vt 0.939318 0.836755
vt 0.939031 0.933454
vt 0.897727 0.769904
vt 0.939031 0.988137
vt 0.939318 0.836917
vt 0.862314 0.749459
vt 0.992489 0.884274
vt 0.992489 0.931632
vt 0.993430 0.685972
vt 0.993430 0.740655
vt 0.992489 0.742039
vt 0.992489 0.789397
vt 0.992489 0.836755
vt 0.992201 0.933454
vt 0.992201 0.988137
vt 0.992489 0.836917
vt 0.939318 0.884274
vt 0.862314 0.708567
vt 0.939318 0.931632
vt 0.940260 0.685972
vt 0.897727 0.688121
vt 0.940260 0.740655
vt 0.939318 0.742039
vt 0.933140 0.708567
vt 0.939318 0.789397
vt 0.933140 0.749459
vt 0.939318 0.836755
vt 0.939031 0.933454
vt 0.897727 0.769904
vt 0.939031 0.988137
vt 0.939318 0.836917
vt 0.862314 0.749459
vt 0.992489 0.885288
vt 0.992489 0.932645
vt 0.993430 0.686985
vt 0.993430 0.741669
vt 0.992489 0.743053
vt 0.992489 0.790410
vt 0.992489 0.837768
vt 0.992201 0.934467
vt 0.992201 0.989151
vt 0.992489 0.837930
vt 0.939318 0.885288
vt 0.862314 0.709325
vt 0.939318 0.932645
vt 0.940260 0.686985
vt 0.897727 0.688879
vt 0.940260 0.741669
vt 0.939318 0.743053
vt 0.933140 0.709325
vt 0.939318 0.790410
vt 0.933140 0.750217
vt 0.939318 0.837768
vt 0.939031 0.934467
vt 0.897727 0.770662
vt 0.939031 0.989151
vt 0.939318 0.837930
vt 0.862314 0.750217
vt 0.694258 0.026480
vt 0.745020 0.042892
vt 0.062826 0.026477
vt 0.047990 0.042892
vt 0.235128 0.014660
vt 0.785472 0.468545
vt 0.741413 0.014666
vt 0.007538 0.468545
vt 0.694258 0.017022
vt 0.045143 0.527744
vt 0.970900 0.004145
vt 0.004983 0.017020
vt 0.782625 0.568196
vt 0.004691 0.953397
vt 0.235128 0.004143
vt 0.696930 0.004147
vt 0.742173 0.993849
vt 0.005641 0.014664
vt 0.752101 0.026480
vt 0.785472 0.083345
vt 0.970900 0.014663
vt 0.004983 0.026477
vt 0.007538 0.083345
vt 0.279611 0.014660
vt 0.745020 0.508998
vt 0.696930 0.014665
vt 0.047990 0.508998
vt 0.005641 0.004147
vt 0.752101 0.017022
vt 0.004691 0.568196
vt 0.062826 0.017020
vt 0.742173 0.527744
vt 0.045143 0.993849
vt 0.279611 0.004143
vt 0.741413 0.004148
vt 0.782625 0.953397
vt 0.723160 0.026480
vt 0.775359 0.053005
vt 0.033924 0.026477
vt 0.017651 0.053005
vt 0.256834 0.014660
vt 0.775359 0.498885
vt 0.719707 0.014666
vt 0.017651 0.498885
vt 0.723160 0.017022
vt 0.014804 0.537857
vt 0.033924 0.017020
vt 0.772512 0.537857
vt 0.014804 0.983736
vt 0.256834 0.004143
vt 0.719707 0.004148
vt 0.772512 0.983736
vt 0.045143 0.568196
vt 0.045143 0.953397
vt 0.742173 0.953397
vt 0.742173 0.568196
vt 0.745020 0.083345
vt 0.745020 0.468545
vt 0.047990 0.468545
vt 0.047990 0.083345
vt 0.813638 0.997119
vt 0.813906 0.997119
vt 0.800361 0.997119
vt 0.826380 0.375462
vt 0.800093 0.375462
vt 0.826201 0.997119
vt 0.838675 0.375462
vt 0.786816 0.375462
vt 0.838854 0.388739
vt 0.813638 0.375462
vt 0.813906 0.375462
vt 0.838854 0.375462
vt 0.800361 0.375462
vt 0.826380 0.997119
vt 0.851149 0.388739
vt 0.800093 0.997119
vt 0.826201 0.375462
vt 0.851149 0.375462
vt 0.838675 0.997119
vt 0.786816 0.997119
vt 0.813638 0.997119
vt 0.813906 0.997119
vt 0.800361 0.997119
vt 0.826380 0.375462
vt 0.800093 0.375462
vt 0.826201 0.997119
vt 0.838675 0.375462
vt 0.786816 0.375462
vt 0.838854 0.388739
vt 0.813638 0.375462
vt 0.813906 0.375462
vt 0.838854 0.375462
vt 0.800361 0.375462
vt 0.826380 0.997119
vt 0.851149 0.388739
vt 0.800093 0.997119
vt 0.826201 0.375462
vt 0.851149 0.375462
vt 0.838675 0.997119
vt 0.786816 0.997119
vt 0.900503 0.172962
vt 0.826785 0.227947
vt 0.900776 0.172962
vt 0.860515 0.172962
vt 0.826785 0.267936
vt 0.962058 0.174512
vt 0.900503 0.422471
vt 0.796280 0.259964
vt 0.900776 0.422471
vt 0.860515 0.422471
vt 0.962058 0.424021
vt 0.796280 0.299953
vt 0.962331 0.172962
vt 0.796280 0.237078
vt 0.931281 0.172962
vt 0.984057 0.172962
vt 0.796280 0.258805
vt 0.931554 0.174512
vt 0.962331 0.422471
vt 0.826785 0.269095
vt 0.931281 0.422471
vt 0.984057 0.422471
vt 0.931554 0.424021
vt 0.826785 0.290822
vt 0.900248 0.427362
vt 0.826976 0.292091
vt 0.900521 0.427362
vt 0.860260 0.427362
vt 0.826976 0.332080
vt 0.961803 0.427362
vt 0.900248 0.676871
vt 0.796471 0.323614
vt 0.900521 0.676871
vt 0.860260 0.676871
vt 0.961803 0.676871
vt 0.796471 0.363602
vt 0.962076 0.427362
vt 0.796471 0.301222
vt 0.931026 0.427362
vt 0.983803 0.427362
vt 0.796471 0.322949
vt 0.931299 0.427362
vt 0.962076 0.676871
vt 0.826976 0.332745
vt 0.931026 0.676871
vt 0.983803 0.676871
vt 0.931299 0.676871
vt 0.826976 0.354472
vt 0.798495 0.060517
vt 0.913505 0.164673
vt 0.847678 0.060517
vt 0.911476 0.164602
vt 0.793397 0.174957
vt 0.853577 0.069930
vt 0.856113 0.071609
vt 0.847678 0.061148
vt 0.967978 0.164673
vt 0.798495 0.061148
vt 0.857002 0.164602
vt 0.854379 0.174957
vt 0.792595 0.069930
vt 0.968456 0.071820
vt 0.793397 0.120484
vt 0.792595 0.069299
vt 0.910586 0.071609
vt 0.854379 0.120484
vt 0.853577 0.069299
vt 0.913983 0.071820
vt 0.910586 0.027268
vt 0.792595 0.024958
vt 0.905841 0.109323
vt 0.856113 0.027268
vt 0.853577 0.025589
vt 0.851368 0.109323
vt 0.847678 0.017352
vt 0.967978 0.120878
vt 0.911476 0.120806
vt 0.847678 0.016721
vt 0.857002 0.120806
vt 0.798494 0.017352
vt 0.792595 0.025589
vt 0.968456 0.027479
vt 0.908448 0.074212
vt 0.913983 0.027479
vt 0.853577 0.024958
vt 0.962921 0.074212
vt 0.913505 0.120878
vt 0.798495 0.016721
vt 0.962921 0.118407
vt 0.905841 0.073720
vt 0.756992 0.024958
vt 0.908448 0.118407
vt 0.851368 0.073720
vt 0.889181 0.025589
vt 0.908448 0.110171
vt 0.889181 0.017352
vt 0.962921 0.110171
vt 0.756992 0.016721
vt 0.905675 0.119517
vt 0.756992 0.025589
vt 0.908448 0.109815
vt 0.851202 0.119517
vt 0.889181 0.024958
vt 0.962921 0.109815
vt 0.851202 0.111280
vt 0.889181 0.016721
vt 0.905675 0.111280
vt 0.756992 0.017352
vt 0.798494 0.060517
vt 0.913505 0.164673
vt 0.847678 0.060517
vt 0.911476 0.164602
vt 0.793397 0.174957
vt 0.853578 0.069930
vt 0.856113 0.071609
vt 0.847678 0.061148
vt 0.967978 0.164673
vt 0.798495 0.061148
vt 0.857003 0.164602
vt 0.854379 0.174957
vt 0.792595 0.069930
vt 0.847749 0.118371
vt 0.793397 0.120484
vt 0.792595 0.069299
vt 0.910586 0.071609
vt 0.854379 0.120484
vt 0.853577 0.069299
vt 0.793275 0.118371
vt 0.910586 0.027268
vt 0.792595 0.024958
vt 0.962922 0.109815
vt 0.856113 0.027268
vt 0.853578 0.025589
vt 0.908448 0.109815
vt 0.847678 0.017352
vt 0.967978 0.120878
vt 0.911476 0.120806
vt 0.847678 0.016721
vt 0.857003 0.120806
vt 0.798495 0.017352
vt 0.792595 0.025589
vt 0.847749 0.074030
vt 0.851368 0.073720
vt 0.793275 0.074030
vt 0.853577 0.024958
vt 0.905841 0.073720
vt 0.913505 0.120878
vt 0.798494 0.016721
vt 0.962922 0.118407
vt 0.962922 0.074212
vt 0.756992 0.024958
vt 0.908448 0.118407
vt 0.908448 0.074212
vt 0.889181 0.025589
vt 0.908448 0.110170
vt 0.889181 0.017352
vt 0.962922 0.110170
vt 0.756992 0.016721
vt 0.905675 0.119517
vt 0.756992 0.025589
vt 0.851368 0.109323
vt 0.851202 0.119517
vt 0.889181 0.024958
vt 0.905841 0.109323
vt 0.851202 0.111280
vt 0.889181 0.016721
vt 0.905675 0.111280
vt 0.756992 0.017352
vt 0.798495 0.060517
vt 0.913505 0.164673
vt 0.847678 0.060517
vt 0.911476 0.164602
vt 0.793397 0.174957
vt 0.853577 0.069930
vt 0.856113 0.071609
vt 0.847678 0.061148
vt 0.967978 0.164673
vt 0.798495 0.061148
vt 0.857002 0.164602
vt 0.854379 0.174957
vt 0.792595 0.069930
vt 0.968456 0.071820
vt 0.793397 0.120484
vt 0.792595 0.069299
vt 0.910586 0.071609
vt 0.854379 0.120484
vt 0.853577 0.069299
vt 0.913983 0.071820
vt 0.910586 0.027268
vt 0.792595 0.024958
vt 0.905841 0.109323
vt 0.856113 0.027268
vt 0.853577 0.025589
vt 0.851368 0.109323
vt 0.847678 0.017352
vt 0.967978 0.120878
vt 0.911476 0.120806
vt 0.847678 0.016721
vt 0.857002 0.120806
vt 0.798494 0.017352
vt 0.792595 0.025589
vt 0.968456 0.027479
vt 0.908448 0.074212
vt 0.913983 0.027479
vt 0.853577 0.024958
vt 0.962921 0.074212
vt 0.913505 0.120878
vt 0.798495 0.016721
vt 0.962921 0.118407
vt 0.905841 0.073720
vt 0.756992 0.024958
vt 0.908448 0.118407
vt 0.851368 0.073720
vt 0.889181 0.025589
vt 0.908448 0.110171
vt 0.889181 0.017352
vt 0.962921 0.110171
vt 0.756992 0.016721
vt 0.905675 0.119517
vt 0.756992 0.025589
vt 0.908448 0.109815
vt 0.851202 0.119517
vt 0.889181 0.024958
vt 0.962921 0.109815
vt 0.851202 0.111280
vt 0.889181 0.016721
vt 0.905675 0.111280
vt 0.756992 0.017352
vt 0.798494 0.060517
vt 0.913505 0.164673
vt 0.847678 0.060517
vt 0.911476 0.164602
vt 0.793397 0.174957
vt 0.853578 0.069930
vt 0.856113 0.071609
vt 0.847678 0.061148
vt 0.967978 0.164673
vt 0.798495 0.061148
vt 0.857003 0.164602
vt 0.854379 0.174957
vt 0.792595 0.069930
vt 0.968456 0.071820
vt 0.793397 0.120484
vt 0.792595 0.069299
vt 0.910586 0.071609
vt 0.854379 0.120484
vt 0.853577 0.069299
vt 0.913983 0.071820
vt 0.910586 0.027268
vt 0.792595 0.024958
vt 0.962921 0.109815
vt 0.856113 0.027268
vt 0.853578 0.025589
vt 0.908448 0.109815
vt 0.847678 0.017352
vt 0.967978 0.120878
vt 0.911476 0.120806
vt 0.847678 0.016721
vt 0.857003 0.120806
vt 0.798495 0.017352
vt 0.792595 0.025589
vt 0.968456 0.027479
vt 0.851368 0.073720
vt 0.913983 0.027479
vt 0.853577 0.024958
vt 0.905841 0.073720
vt 0.913505 0.120878
vt 0.798494 0.016721
vt 0.962921 0.118407
vt 0.962921 0.074212
vt 0.756992 0.024958
vt 0.908448 0.118407
vt 0.908448 0.074212
vt 0.889181 0.025589
vt 0.908448 0.110170
vt 0.889181 0.017352
vt 0.962921 0.110170
vt 0.756992 0.016721
vt 0.905675 0.119517
vt 0.756992 0.025589
vt 0.851368 0.109323
vt 0.851202 0.119517
vt 0.889181 0.024958
vt 0.905841 0.109323
vt 0.851202 0.111280
vt 0.889181 0.016721
vt 0.905675 0.111280
vt 0.756992 0.017352
# 596 texture coordinates

vn 0.866026 0.499999 0.000000
vn 0.866026 -0.499999 0.000000
vn 0.866026 0.499999 0.000000
vn 0.000000 1.000000 0.000000
vn 0.000000 1.000000 0.000000
vn -0.866026 0.499999 0.000000
vn -0.866026 0.499999 0.000000
vn -0.866026 -0.499999 0.000000
vn -0.866026 -0.499999 0.000000
vn 0.000000 -1.000000 0.000000
vn 0.000000 -1.000000 0.000000
vn 0.866026 -0.499999 0.000000
vn 0.866026 0.499999 0.000000
vn 0.866026 -0.499999 0.000000
vn 0.000000 -0.000000 1.000000
vn 0.866026 0.499999 0.000000
vn 0.000000 1.000000 0.000000
vn 0.000000 -0.000000 1.000000
vn 0.000000 1.000000 0.000000
vn -0.866026 0.499999 0.000000
vn 0.000000 -0.000000 1.000000
vn -0.866026 0.499999 0.000000
vn -0.866026 -0.499999 0.000000
vn 0.000000 -0.000000 1.000000
vn -0.866026 -0.499999 0.000000
vn 0.000000 -1.000000 0.000000
vn 0.000000 -0.000000 1.000000
vn 0.000000 -1.000000 0.000000
vn 0.866026 -0.499999 0.000000
vn 0.000000 -0.000000 1.000000
vn 0.866026 0.499998 0.000000
vn 0.866026 -0.499999 0.000000
vn 0.866026 0.499998 0.000000
vn 0.000000 1.000000 0.000000
vn 0.000000 1.000000 0.000000
vn -0.866026 0.499998 0.000000
vn -0.866026 0.499998 0.000000
vn -0.866026 -0.499999 0.000000
vn -0.866026 -0.499999 0.000000
vn 0.000000 -1.000000 0.000000
vn 0.000000 -1.000000 0.000000
vn 0.866026 -0.499999 0.000000
vn 0.866026 0.499998 0.000000
vn 0.866026 -0.499999 0.000000
vn 0.000000 -0.000000 1.000000
vn 0.866026 0.499998 0.000000
vn 0.000000 1.000000 0.000000
vn 0.000000 -0.000000 1.000000
vn 0.000000 1.000000 0.000000
vn -0.866026 0.499998 0.000000
vn 0.000000 -0.000000 1.000000
vn -0.866026 0.499998 0.000000
vn -0.866026 -0.499999 0.000000
vn 0.000000 -0.000000 1.000000
vn -0.866026 -0.499999 0.000000
vn 0.000000 -1.000000 0.000000
vn 0.000000 -0.000000 1.000000
vn 0.000000 -1.000000 0.000000
vn 0.866026 -0.499999 0.000000
vn 0.000000 -0.000000 1.000000
vn 0.866025 0.500001 0.000000
vn 0.866025 -0.500001 0.000000
vn 0.866025 0.500001 0.000000
vn 0.000000 1.000000 0.000000
vn 0.000000 1.000000 0.000000
vn -0.866025 0.500001 0.000000
vn -0.866025 0.500001 0.000000
vn -0.866025 -0.500001 0.000000
vn -0.866025 -0.500001 0.000000
vn 0.000000 -1.000000 0.000000
vn 0.000000 -1.000000 0.000000
vn 0.866025 -0.500001 0.000000
vn 0.866025 0.500001 0.000000
vn 0.866025 -0.500001 0.000000
vn 0.000000 -0.000000 1.000000
vn 0.866025 0.500001 0.000000
vn 0.000000 1.000000 0.000000
vn 0.000000 -0.000000 1.000000
vn 0.000000 1.000000 0.000000
vn -0.866025 0.500001 0.000000
vn 0.000000 -0.000000 1.000000
vn -0.866025 0.500001 0.000000
vn -0.866025 -0.500001 0.000000
vn 0.000000 -0.000000 1.000000
vn -0.866025 -0.500001 0.000000
vn 0.000000 -1.000000 0.000000
vn 0.000000 -0.000000 1.000000
vn 0.000000 -1.000000 0.000000
vn 0.866025 -0.500001 0.000000
vn 0.000000 -0.000000 1.000000
vn 0.866025 0.500000 0.000000
vn 0.866025 -0.500001 0.000000
vn 0.866025 0.500000 0.000000
vn 0.000000 1.000000 0.000000
vn 0.000000 1.000000 0.000000
vn -0.866025 0.500000 0.000000
vn -0.866025 0.500000 0.000000
vn -0.866025 -0.500001 0.000000
vn -0.866025 -0.500001 0.000000
vn 0.000000 -1.000000 0.000000
vn 0.000000 -1.000000 0.000000
vn 0.866025 -0.500001 0.000000
vn 0.866025 0.500000 0.000000
vn 0.866025 -0.500001 0.000000
vn 0.000000 -0.000000 1.000000
vn 0.866025 0.500000 0.000000
vn 0.000000 1.000000 0.000000
vn 0.000000 -0.000000 1.000000
vn 0.000000 1.000000 0.000000
vn -0.866025 0.500000 0.000000
vn 0.000000 -0.000000 1.000000
vn -0.866025 0.500000 0.000000
vn -0.866025 -0.500001 0.000000
vn 0.000000 -0.000000 1.000000
vn -0.866025 -0.500001 0.000000
vn 0.000000 -1.000000 0.000000
vn 0.000000 -0.000000 1.000000
vn 0.000000 -1.000000 0.000000
vn 0.866025 -0.500001 0.000000
vn 0.000000 -0.000000 1.000000
vn 0.866024 0.500003 0.000000
vn 0.866024 -0.500003 0.000000
vn 0.866024 0.500003 0.000000
vn 0.000000 1.000000 0.000000
vn 0.000000 1.000000 0.000000
vn -0.866024 0.500003 0.000000
vn -0.866024 0.500003 0.000000
vn -0.866024 -0.500003 0.000000
vn -0.866024 -0.500003 0.000000
vn 0.000000 -1.000000 0.000000
vn 0.000000 -1.000000 0.000000
vn 0.866024 -0.500003 0.000000
vn 0.866024 0.500003 0.000000
vn 0.866024 -0.500003 0.000000
vn 0.000000 -0.000000 1.000000
vn 0.866024 0.500003 0.000000
vn 0.000000 1.000000 0.000000
vn 0.000000 -0.000000 1.000000
vn 0.000000 1.000000 0.000000
vn -0.866024 0.500003 0.000000
vn 0.000000 -0.000000 1.000000
vn -0.866024 0.500003 0.000000
vn -0.866024 -0.500003 0.000000
vn 0.000000 -0.000000 1.000000
vn -0.866024 -0.500003 0.000000
vn 0.000000 -1.000000 0.000000
vn 0.000000 -0.000000 1.000000
vn 0.000000 -1.000000 0.000000
vn 0.866024 -0.500003 0.000000
vn 0.000000 -0.000000 1.000000
vn 0.866024 0.500003 0.000000
vn 0.866024 -0.500003 0.000000
vn 0.866024 0.500003 0.000000
vn 0.000000 1.000000 0.000000
vn 0.000000 1.000000 0.000000
vn -0.866024 0.500003 0.000000
vn -0.866024 0.500003 0.000000
vn -0.866024 -0.500003 0.000000
vn -0.866024 -0.500003 0.000000
vn 0.000000 -1.000000 0.000000
vn 0.000000 -1.000000 0.000000
vn 0.866024 -0.500003 0.000000
vn 0.866024 0.500003 0.000000
vn 0.866024 -0.500003 0.000000
vn 0.000000 -0.000000 1.000000
vn 0.866024 0.500003 0.000000
vn 0.000000 1.000000 0.000000
vn 0.000000 -0.000000 1.000000
vn 0.000000 1.000000 0.000000
vn -0.866024 0.500003 0.000000
vn 0.000000 -0.000000 1.000000
vn -0.866024 0.500003 0.000000
vn -0.866024 -0.500003 0.000000
vn 0.000000 -0.000000 1.000000
vn -0.866024 -0.500003 0.000000
vn 0.000000 -1.000000 0.000000
vn 0.000000 -0.000000 1.000000
vn 0.000000 -1.000000 0.000000
vn 0.866024 -0.500003 0.000000
vn 0.000000 -0.000000 1.000000
vn 0.866023 0.500005 0.000000
vn 0.866023 -0.500005 0.000000
vn 0.866023 0.500005 0.000000
vn 0.000000 1.000000 0.000000
vn 0.000000 1.000000 0.000000
vn -0.866023 0.500005 0.000000
vn -0.866023 0.500005 0.000000
vn -0.866023 -0.500005 0.000000
vn -0.866023 -0.500005 0.000000
vn 0.000000 -1.000000 0.000000
vn 0.000000 -1.000000 0.000000
vn 0.866023 -0.500005 0.000000
vn 0.866023 0.500005 0.000000
vn 0.866023 -0.500005 0.000000
vn 0.000000 -0.000000 1.000000
vn 0.866023 0.500005 0.000000
vn 0.000000 1.000000 0.000000
vn 0.000000 -0.000000 1.000000
vn 0.000000 1.000000 0.000000
vn -0.866023 0.500005 0.000000
vn 0.000000 -0.000000 1.000000
vn -0.866023 0.500005 0.000000
vn -0.866023 -0.500005 0.000000
vn 0.000000 -0.000000 1.000000
vn -0.866023 -0.500005 0.000000
vn 0.000000 -1.000000 0.000000
vn 0.000000 -0.000000 1.000000
vn 0.000000 -1.000000 0.000000
vn 0.866023 -0.500005 0.000000
vn 0.000000 -0.000000 1.000000
vn 0.866023 0.500005 0.000000
vn 0.866023 -0.500005 0.000000
vn 0.866023 0.500005 0.000000
vn 0.000000 1.000000 0.000000
vn 0.000000 1.000000 0.000000
vn -0.866023 0.500005 0.000000
vn -0.866023 0.500005 0.000000
vn -0.866023 -0.500005 0.000000
vn -0.866023 -0.500005 0.000000
vn 0.000000 -1.000000 0.000000
vn 0.000000 -1.000000 0.000000
vn 0.866023 -0.500005 0.000000
vn 0.866023 0.500005 0.000000
vn 0.866023 -0.500005 0.000000
vn 0.000000 -0.000000 1.000000
vn 0.866023 0.500005 0.000000
vn 0.000000 1.000000 0.000000
vn 0.000000 -0.000000 1.000000
vn 0.000000 1.000000 0.000000
vn -0.866023 0.500005 0.000000
vn 0.000000 -0.000000 1.000000
vn -0.866023 0.500005 0.000000
vn -0.866023 -0.500005 0.000000
vn 0.000000 -0.000000 1.000000
vn -0.866023 -0.500005 0.000000
vn 0.000000 -1.000000 0.000000
vn 0.000000 -0.000000 1.000000
vn 0.000000 -1.000000 0.000000
vn 0.866023 -0.500005 0.000000
vn 0.000000 -0.000000 1.000000
vn -0.160182 -0.987087 0.000000
vn 0.000000 0.000000 -1.000000
vn 0.160182 -0.987087 0.000000
vn -0.000000 0.000000 -1.000000
vn -0.987087 0.160182 0.000000
vn 0.000000 0.000000 -1.000000
vn 0.987087 0.160182 0.000000
vn -0.000000 0.000000 -1.000000
vn -0.160182 -0.987087 0.000000
vn 0.000000 -0.000000 1.000000
vn 0.987087 -0.160182 0.000000
vn -0.000000 -0.000000 1.000000
vn 0.000000 -0.000000 1.000000
vn -0.987087 0.160182 0.000000
vn 0.160182 0.987088 0.000000
vn -0.000000 -0.000000 1.000000
vn -0.987087 -0.160182 0.000000
vn 0.000000 0.000000 -1.000000
vn 0.987087 -0.160182 0.000000
vn -0.000000 0.000000 -1.000000
vn -0.160182 0.987088 0.000000
vn 0.000000 0.000000 -1.000000
vn 0.160182 0.987088 0.000000
vn -0.000000 0.000000 -1.000000
vn -0.987087 -0.160182 0.000000
vn 0.000000 -0.000000 1.000000
vn 0.160182 -0.987087 0.000000
vn -0.000000 -0.000000 1.000000
vn 0.000000 -0.000000 1.000000
vn -0.160182 0.987088 0.000000
vn 0.987087 0.160182 0.000000
vn -0.000000 -0.000000 1.000000
vn -0.316227 -0.948684 0.000000
vn -0.948683 -0.316228 0.000000
vn 0.000000 0.000000 -1.000000
vn 0.316227 -0.948684 0.000000
vn 0.948683 -0.316228 0.000000
vn -0.000000 0.000000 -1.000000
vn -0.316228 0.948683 0.000000
vn -0.948683 0.316228 0.000000
vn 0.000000 0.000000 -1.000000
vn 0.948683 0.316228 0.000000
vn 0.316228 0.948683 0.000000
vn -0.000000 0.000000 -1.000000
vn -0.316227 -0.948684 0.000000
vn -0.948683 -0.316228 0.000000
vn 0.000000 -0.000000 1.000000
vn 0.316227 -0.948684 0.000000
vn 0.948683 -0.316228 0.000000
vn -0.000000 -0.000000 1.000000
vn 0.000000 -0.000000 1.000000
vn -0.316228 0.948683 0.000000
vn -0.948683 0.316228 0.000000
vn 0.948683 0.316228 0.000000
vn 0.316228 0.948683 0.000000
vn -0.000000 -0.000000 1.000000
vn 0.000000 -0.000000 1.000000
vn 0.000000 -0.000000 1.000000
vn -0.000000 -0.000000 1.000000
vn -0.000000 -0.000000 1.000000
vn 0.000000 0.000000 -1.000000
vn 0.000000 0.000000 -1.000000
vn -0.000000 0.000000 -1.000000
vn -0.000000 0.000000 -1.000000
vn 0.000000 0.000000 1.000000
vn -1.000000 0.000000 0.000000
vn 0.000000 0.000000 1.000000
vn 1.000000 0.000000 0.000000
vn 0.000000 -0.000000 -1.000000
vn -1.000000 0.000000 0.000000
vn 1.000000 0.000000 0.000000
vn 0.000000 -0.000000 -1.000000
vn 0.000000 1.000000 0.000000
vn 0.000000 0.000000 1.000000
vn -1.000000 0.000000 0.000000
vn 0.000000 1.000000 0.000000
vn 0.000000 0.000000 1.000000
vn 1.000000 0.000000 0.000000
vn 0.000000 1.000000 0.000000
vn 0.000000 -0.000000 -1.000000
vn -1.000000 0.000000 0.000000
vn 0.000000 1.000000 0.000000
vn 1.000000 0.000000 0.000000
vn 0.000000 -0.000000 -1.000000
vn 0.000000 0.000000 1.000000
vn -1.000000 0.000000 0.000000
vn 0.000000 0.000000 1.000000
vn 1.000000 0.000000 0.000000
vn 0.000000 -0.000000 -1.000000
vn -1.000000 0.000000 0.000000
vn 1.000000 0.000000 0.000000
vn 0.000000 -0.000000 -1.000000
vn 0.000000 1.000000 0.000000
vn 0.000000 0.000000 1.000000
vn -1.000000 0.000000 0.000000
vn 0.000000 1.000000 0.000000
vn 0.000000 0.000000 1.000000
vn 1.000000 0.000000 0.000000
vn 0.000000 1.000000 0.000000
vn 0.000000 -0.000000 -1.000000
vn -1.000000 0.000000 0.000000
vn 0.000000 1.000000 0.000000
vn 1.000000 0.000000 0.000000
vn 0.000000 -0.000000 -1.000000
vn 0.000000 -1.000000 0.000000
vn 0.000000 0.000000 1.000000
vn -0.958003 0.286760 -0.000000
vn 0.000000 -1.000000 0.000000
vn 0.000000 0.000000 1.000000
vn 0.958003 0.286760 -0.000000
vn 0.000000 -1.000000 0.000000
vn 0.000000 0.000000 -1.000000
vn -0.958003 0.286760 -0.000000
vn 0.000000 -1.000000 0.000000
vn 0.958003 0.286760 -0.000000
vn 0.000000 0.000000 -1.000000
vn 0.000000 1.000000 -0.000000
vn 0.000000 0.000000 1.000000
vn -0.958003 0.286760 -0.000000
vn 0.000000 1.000000 -0.000000
vn 0.000000 0.000000 1.000000
vn 0.958003 0.286760 -0.000000
vn 0.000000 1.000000 -0.000000
vn 0.000000 0.000000 -1.000000
vn -0.958003 0.286760 -0.000000
vn 0.000000 1.000000 -0.000000
vn 0.958003 0.286760 -0.000000
vn 0.000000 0.000000 -1.000000
vn 0.000000 -1.000000 0.000000
vn 0.000000 0.000000 1.000000
vn -0.958003 0.286760 -0.000000
vn 0.000000 -1.000000 0.000000
vn 0.000000 0.000000 1.000000
vn 0.958002 0.286760 -0.000000
vn 0.000000 -1.000000 0.000000
vn 0.000000 0.000000 -1.000000
vn -0.958003 0.286760 -0.000000
vn 0.000000 -1.000000 0.000000
vn 0.958002 0.286760 -0.000000
vn 0.000000 0.000000 -1.000000
vn 0.000000 1.000000 -0.000000
vn 0.000000 0.000000 1.000000
vn -0.958003 0.286760 -0.000000
vn 0.000000 1.000000 -0.000000
vn 0.000000 0.000000 1.000000
vn 0.958002 0.286760 -0.000000
vn 0.000000 1.000000 -0.000000
vn 0.000000 0.000000 -1.000000
vn -0.958003 0.286760 -0.000000
vn 0.000000 1.000000 -0.000000
vn 0.958002 0.286760 -0.000000
vn 0.000000 0.000000 -1.000000
vn 0.000000 -1.000000 0.000000
vn -1.000000 0.000000 0.000000
vn 0.000000 -1.000000 0.000000
vn 1.000000 -0.000000 0.000005
vn 0.000000 0.000000 -1.000000
vn -0.000001 1.000000 -0.000001
vn 1.000000 0.000000 0.000000
vn -0.000001 1.000000 -0.000001
vn -1.000000 0.000000 0.000000
vn 0.000001 1.000000 -0.000001
vn 1.000000 -0.000000 0.000005
vn 0.000000 0.000000 -1.000000
vn 0.000001 1.000000 -0.000001
vn -1.000000 0.000000 -0.000005
vn 0.000000 0.000000 -1.000000
vn 0.000000 -1.000000 0.000000
vn 1.000000 0.000000 0.000000
vn 0.000000 0.000000 -1.000000
vn 0.000000 -1.000000 0.000000
vn -1.000000 0.000000 -0.000005
vn 1.000000 0.000000 0.000000
vn 0.000000 -1.000000 0.000000
vn 0.000001 0.000000 -1.000000
vn 1.000000 0.000000 0.000000
vn -0.000001 1.000000 -0.000001
vn 0.000001 0.000000 -1.000000
vn -0.000001 1.000000 -0.000001
vn -1.000000 0.000000 0.000000
vn 1.000000 -0.000000 0.000005
vn 0.000000 -1.000000 0.000000
vn 1.000000 -0.000000 0.000005
vn 0.000001 1.000000 -0.000001
vn 0.000001 1.000000 -0.000001
vn -1.000000 0.000000 -0.000005
vn 0.000001 0.000000 -1.000000
vn -1.000000 0.000000 -0.000005
vn 0.000000 -1.000000 0.000000
vn 0.000001 0.000000 -1.000000
vn -1.000000 0.000000 0.000000
vn 0.000000 -1.000000 0.000000
vn 1.000000 0.000000 0.000000
vn 0.000001 0.000000 -1.000000
vn 0.000000 -1.000000 0.000000
vn 1.000000 0.000000 0.000000
vn 0.000001 0.000000 -1.000000
vn 0.000000 1.000000 0.000000
vn 1.000000 0.000000 0.000000
vn 0.000000 1.000000 0.000000
vn 1.000000 0.000000 0.000000
vn 0.000000 -1.000000 0.000000
vn -1.000000 0.000000 0.000000
vn 0.000000 1.000000 0.000000
vn 0.000001 0.000000 -1.000000
vn -1.000000 0.000000 0.000000
vn 0.000000 -1.000000 0.000000
vn 0.000001 0.000000 -1.000000
vn -1.000000 0.000000 0.000000
vn 0.000000 -1.000000 0.000000
vn -1.000000 0.000000 0.000000
vn 0.000000 1.000000 0.000000
vn 0.000002 -1.000000 0.000001
vn -1.000000 0.000000 0.000000
vn -0.000002 -1.000000 0.000001
vn 1.000000 0.000000 0.000000
vn 0.000000 0.000000 -1.000000
vn 0.000000 1.000000 0.000000
vn 1.000000 0.000000 0.000000
vn 0.000000 1.000000 0.000000
vn -1.000000 0.000000 0.000000
vn 0.000000 1.000000 0.000000
vn 1.000000 0.000000 0.000000
vn 0.000000 0.000000 -1.000000
vn 0.000000 1.000000 0.000000
vn -1.000000 0.000000 0.000000
vn 0.000000 0.000000 -1.000000
vn 0.000002 -1.000000 0.000001
vn 1.000000 0.000000 0.000000
vn 0.000000 0.000000 -1.000000
vn -0.000002 -1.000000 0.000001
vn -1.000000 0.000000 0.000000
vn 1.000000 0.000000 0.000000
vn 0.000002 -1.000000 0.000001
vn 0.000001 0.000000 -1.000000
vn 1.000000 0.000000 0.000000
vn 0.000000 1.000000 0.000000
vn 0.000001 0.000000 -1.000000
vn 0.000000 1.000000 0.000000
vn -1.000000 0.000000 0.000000
vn 1.000000 0.000000 0.000000
vn -0.000002 -1.000000 0.000001
vn 1.000000 0.000000 0.000000
vn 0.000000 1.000000 0.000000
vn 0.000000 1.000000 0.000000
vn -1.000000 0.000000 0.000000
vn 0.000001 0.000000 -1.000000
vn -1.000000 0.000000 0.000000
vn -0.000002 -1.000000 0.000001
vn 0.000001 0.000000 -1.000000
vn -1.000000 0.000000 0.000000
vn 0.000002 -1.000000 0.000001
vn 1.000000 0.000000 0.000000
vn 0.000001 0.000000 -1.000000
vn 0.000000 -1.000000 0.000000
vn 1.000000 0.000000 0.000000
vn 0.000001 0.000000 -1.000000
vn 0.000000 1.000000 0.000000
vn 1.000000 0.000000 0.000000
vn 0.000000 1.000000 0.000000
vn 1.000000 0.000000 0.000000
vn 0.000000 -1.000000 0.000000
vn -1.000000 0.000000 0.000000
vn 0.000000 1.000000 0.000000
vn 0.000001 0.000000 -1.000000
vn -1.000000 0.000000 0.000000
vn 0.000000 -1.000000 0.000000
vn 0.000001 0.000000 -1.000000
vn -1.000000 0.000000 0.000000
vn 0.000000 -1.000000 0.000000
vn -1.000000 0.000000 0.000000
vn 0.000000 1.000000 0.000000
vn 0.000002 -1.000000 0.000001
vn -1.000000 0.000000 0.000000
vn -0.000002 -1.000000 0.000001
vn 1.000000 -0.000000 0.000005
vn 0.000000 0.000000 -1.000000
vn 0.000000 1.000000 0.000000
vn 1.000000 0.000000 0.000000
vn 0.000000 1.000000 0.000000
vn -1.000000 0.000000 0.000000
vn 0.000000 1.000000 0.000000
vn 1.000000 -0.000000 0.000005
vn 0.000000 0.000000 -1.000000
vn 0.000000 1.000000 0.000000
vn -1.000000 0.000000 -0.000005
vn 0.000000 0.000000 -1.000000
vn 0.000002 -1.000000 0.000001
vn 1.000000 0.000000 0.000000
vn 0.000000 0.000000 -1.000000
vn -0.000002 -1.000000 0.000001
vn -1.000000 0.000000 -0.000005
vn 1.000000 0.000000 0.000000
vn 0.000002 -1.000000 0.000001
vn 0.000001 0.000000 -1.000000
vn 1.000000 0.000000 0.000000
vn 0.000000 1.000000 0.000000
vn 0.000001 0.000000 -1.000000
vn 0.000000 1.000000 0.000000
vn -1.000000 0.000000 0.000000
vn 1.000000 -0.000000 0.000005
vn -0.000002 -1.000000 0.000001
vn 1.000000 -0.000000 0.000005
vn 0.000000 1.000000 0.000000
vn 0.000000 1.000000 0.000000
vn -1.000000 0.000000 -0.000005
vn 0.000001 0.000000 -1.000000
vn -1.000000 0.000000 -0.000005
vn -0.000002 -1.000000 0.000001
vn 0.000001 0.000000 -1.000000
vn -1.000000 0.000000 0.000000
vn 0.000002 -1.000000 0.000001
vn 1.000000 0.000000 0.000000
vn 0.000001 0.000000 -1.000000
vn 0.000000 -1.000000 0.000000
vn 1.000000 0.000000 0.000000
vn 0.000001 0.000000 -1.000000
vn 0.000000 1.000000 0.000000
vn 1.000000 0.000000 0.000000
vn 0.000000 1.000000 0.000000
vn 1.000000 0.000000 0.000000
vn 0.000000 -1.000000 0.000000
vn -1.000000 0.000000 0.000000
vn 0.000000 1.000000 0.000000
vn 0.000001 0.000000 -1.000000
vn -1.000000 0.000000 0.000000
vn 0.000000 -1.000000 0.000000
vn 0.000001 0.000000 -1.000000
vn -1.000000 0.000000 0.000000
vn 0.000000 -1.000000 0.000000
vn -1.000000 0.000000 0.000000
vn 0.000000 1.000000 0.000000
vn 0.000000 -1.000000 0.000000
vn -1.000000 0.000000 0.000000
vn 0.000000 -1.000000 0.000000
vn 1.000000 0.000000 0.000000
vn 0.000000 0.000000 -1.000000
vn -0.000001 1.000000 -0.000001
vn 1.000000 0.000000 0.000000
vn -0.000001 1.000000 -0.000001
vn -1.000000 0.000000 0.000000
vn 0.000001 1.000000 -0.000001
vn 1.000000 0.000000 0.000000
vn 0.000000 0.000000 -1.000000
vn 0.000001 1.000000 -0.000001
vn -1.000000 0.000000 0.000000
vn 0.000000 0.000000 -1.000000
vn 0.000000 -1.000000 0.000000
vn 1.000000 0.000000 0.000000
vn 0.000000 0.000000 -1.000000
vn 0.000000 -1.000000 0.000000
vn -1.000000 0.000000 0.000000
vn 1.000000 0.000000 0.000000
vn 0.000000 -1.000000 0.000000
vn 0.000001 0.000000 -1.000000
vn 1.000000 0.000000 0.000000
vn -0.000001 1.000000 -0.000001
vn 0.000001 0.000000 -1.000000
vn -0.000001 1.000000 -0.000001
vn -1.000000 0.000000 0.000000
vn 1.000000 0.000000 0.000000
vn 0.000000 -1.000000 0.000000
vn 1.000000 0.000000 0.000000
vn 0.000001 1.000000 -0.000001
vn 0.000001 1.000000 -0.000001
vn -1.000000 0.000000 0.000000
vn 0.000001 0.000000 -1.000000
vn -1.000000 0.000000 0.000000
vn 0.000000 -1.000000 0.000000
vn 0.000001 0.000000 -1.000000
vn -1.000000 0.000000 0.000000
vn 0.000000 -1.000000 0.000000
vn 1.000000 0.000000 0.000000
vn 0.000001 0.000000 -1.000000
vn 0.000000 -1.000000 0.000000
vn 1.000000 0.000000 0.000000
vn 0.000001 0.000000 -1.000000
vn 0.000000 1.000000 0.000000
vn 1.000000 0.000000 0.000000
vn 0.000000 1.000000 0.000000
vn 1.000000 0.000000 0.000000
vn 0.000000 -1.000000 0.000000
vn -1.000000 0.000000 0.000000
vn 0.000000 1.000000 0.000000
vn 0.000001 0.000000 -1.000000
vn -1.000000 0.000000 0.000000
vn 0.000000 -1.000000 0.000000
vn 0.000001 0.000000 -1.000000
vn -1.000000 0.000000 0.000000
vn 0.000000 -1.000000 0.000000
vn -1.000000 0.000000 0.000000
vn 0.000000 1.000000 0.000000
# 632 normals

usemtl 
s 1
f 1/1/1 2/2/3 8/13/16 7/11/13
s 2
f 2/3/4 3/4/5 9/16/19 8/14/17
s 3
f 3/5/6 4/6/7 10/19/22 9/17/20
s 4
f 4/6/8 5/7/9 11/21/25 10/19/23
s 5
f 5/8/10 6/9/11 12/24/28 11/22/26
s 6
f 6/10/12 1/1/2 7/11/14 12/25/29
s 7
f 7/12/15 8/15/18 9/18/21 10/20/24 11/23/27 12/26/30
s 8
f 13/27/31 14/28/33 20/39/46 19/37/43
s 9
f 14/29/34 15/30/35 21/42/49 20/40/47
s 10
f 15/31/36 16/32/37 22/45/52 21/43/50
s 11
f 16/32/38 17/33/39 23/47/55 22/45/53
s 12
f 17/34/40 18/35/41 24/50/58 23/48/56
s 13
f 18/36/42 13/27/32 19/37/44 24/51/59
s 14
f 19/38/45 20/41/48 21/44/51 22/46/54 23/49/57 24/52/60
s 15
f 25/53/61 26/54/63 32/65/76 31/63/73
s 16
f 26/55/64 27/56/65 33/68/79 32/66/77
s 17
f 27/57/66 28/58/67 34/71/82 33/69/80
s 18
f 28/58/68 29/59/69 35/73/85 34/71/83
s 19
f 29/60/70 30/61/71 36/76/88 35/74/86
s 20
f 30/62/72 25/53/62 31/63/74 36/77/89
s 21
f 31/64/75 32/67/78 33/70/81 34/72/84 35/75/87 36/78/90
s 22
f 37/79/91 38/80/93 44/91/106 43/89/103
s 23
f 38/81/94 39/82/95 45/94/109 44/92/107
s 24
f 39/83/96 40/84/97 46/97/112 45/95/110
s 25
f 40/84/98 41/85/99 47/99/115 46/97/113
s 26
f 41/86/100 42/87/101 48/102/118 47/100/116
s 27
f 42/88/102 37/79/92 43/89/104 48/103/119
s 28
f 43/90/105 44/93/108 45/96/111 46/98/114 47/101/117 48/104/120
s 29
f 49/105/121 50/106/123 56/117/136 55/115/133
s 30
f 50/107/124 51/108/125 57/120/139 56/118/137
s 31
f 51/109/126 52/110/127 58/123/142 57/121/140
s 32
f 52/110/128 53/111/129 59/125/145 58/123/143
s 33
f 53/112/130 54/113/131 60/128/148 59/126/146
s 34
f 54/114/132 49/105/122 55/115/134 60/129/149
s 35
f 55/116/135 56/119/138 57/122/141 58/124/144 59/127/147 60/130/150
s 36
f 61/131/151 62/132/153 68/143/166 67/141/163
s 37
f 62/133/154 63/134/155 69/146/169 68/144/167
s 38
f 63/135/156 64/136/157 70/149/172 69/147/170
s 39
f 64/136/158 65/137/159 71/151/175 70/149/173
s 40
f 65/138/160 66/139/161 72/154/178 71/152/176
s 41
f 66/140/162 61/131/152 67/141/164 72/155/179
s 42
f 67/142/165 68/145/168 69/148/171 70/150/174 71/153/177 72/156/180
s 43
f 73/157/181 74/158/183 80/169/196 79/167/193
s 44
f 74/159/184 75/160/185 81/172/199 80/170/197
s 45
f 75/161/186 76/162/187 82/175/202 81/173/200
s 46
f 76/162/188 77/163/189 83/177/205 82/175/203
s 47
f 77/164/190 78/165/191 84/180/208 83/178/206
s 48
f 78/166/192 73/157/182 79/167/194 84/181/209
s 49
f 79/168/195 80/171/198 81/174/201 82/176/204 83/179/207 84/182/210
s 50
f 85/183/211 86/184/213 92/195/226 91/193/223
s 51
f 86/185/214 87/186/215 93/198/229 92/196/227
s 52
f 87/187/216 88/188/217 94/201/232 93/199/230
s 53
f 88/188/218 89/189/219 95/203/235 94/201/233
s 54
f 89/190/220 90/191/221 96/206/238 95/204/236
s 55
f 90/192/222 85/183/212 91/193/224 96/207/239
s 56
f 91/194/225 92/197/228 93/200/231 94/202/234 95/205/237 96/208/240
s 57
f 111/241/269 119/257/291 103/222/253 122/262/298
f 109/238/266 117/254/287 101/218/250 121/261/297
f 122/262/298 103/222/253 109/238/266 121/261/297
f 110/240/268 118/256/290 102/221/252 124/264/300
f 124/264/300 102/221/252 112/244/272 123/263/299
f 123/263/299 112/244/272 120/260/296 104/225/256
f 104/225/256 111/241/269 122/262/298 123/263/299
f 123/263/299 122/262/298 121/261/297 124/264/300
f 124/264/300 121/261/297 101/218/250 110/240/268
s 58
f 97/209/241 98/211/243 110/239/267 101/217/249
f 98/211/243 114/247/276 118/255/288 110/239/267
f 101/217/249 117/253/285 113/245/273 97/209/241
s 59
f 106/229/259 100/215/247 112/243/271 102/219/251
f 100/215/247 116/251/282 120/259/294 112/243/271
f 114/247/277 106/230/259 102/220/251 118/255/289
s 60
f 108/234/263 107/232/261 111/242/270 104/224/255
f 107/232/261 115/249/279 119/258/292 111/242/270
f 116/251/283 108/234/263 104/224/255 120/259/295
s 61
f 99/213/245 105/226/257 109/236/265 103/223/254
f 117/253/286 109/237/265 105/227/257 113/245/274
f 115/249/280 99/213/245 103/223/254 119/258/293
s 62
f 128/268/304 125/265/301 126/266/302 127/267/303
f 107/233/262 108/235/264 127/267/303 126/266/302
f 98/212/244 97/210/242 125/265/301 128/268/304
f 97/210/242 113/246/275 105/228/258 125/265/301
f 125/265/301 105/228/258 99/214/246 126/266/302
f 126/266/302 99/214/246 115/250/281 107/233/262
f 108/235/264 116/252/284 100/216/248 127/267/303
f 127/267/303 100/216/248 106/231/260 128/268/304
f 128/268/304 106/231/260 114/248/278 98/212/244
s 63
f 133/277/313 134/280/316 136/286/322 135/283/319
s 64
f 129/269/305 130/271/307 134/281/317 133/278/314
s 65
f 130/272/308 132/275/311 136/287/323 134/282/318
s 66
f 132/276/312 131/273/309 135/284/320 136/288/324
s 67
f 131/274/310 129/270/306 133/279/315 135/285/321
s 68
f 141/297/333 142/300/336 144/306/342 143/303/339
s 69
f 137/289/325 138/291/327 142/301/337 141/298/334
s 70
f 138/292/328 140/295/331 144/307/343 142/302/338
s 71
f 140/296/332 139/293/329 143/304/340 144/308/344
s 72
f 139/294/330 137/290/326 141/299/335 143/305/341
s 73
f 145/309/345 147/315/351 148/318/354 146/312/348
s 74
f 149/321/357 150/324/360 152/330/366 151/327/363
s 75
f 145/310/346 146/313/349 150/325/361 149/322/358
s 76
f 146/314/350 148/319/355 152/331/367 150/326/362
s 77
f 148/320/356 147/316/352 151/328/364 152/332/368
s 78
f 147/317/353 145/311/347 149/323/359 151/329/365
s 79
f 153/333/369 155/339/375 156/342/378 154/336/372
s 80
f 157/345/381 158/348/384 160/354/390 159/351/387
s 81
f 153/334/370 154/337/373 158/349/385 157/346/382
s 82
f 154/338/374 156/343/379 160/355/391 158/350/386
s 83
f 156/344/380 155/340/376 159/352/388 160/356/392
s 84
f 155/341/377 153/335/371 157/347/383 159/353/389
s 85
f 167/371/407 168/374/410 166/368/404 163/361/397
s 86
f 161/357/393 162/359/395 168/375/411 167/372/408
f 161/357/393 167/372/408 169/378/414 176/396/432
f 168/375/411 162/359/395 172/386/422 175/393/429
f 176/396/432 169/378/414 177/399/435 180/406/442
f 175/393/429 172/386/422 183/414/450 182/411/447
s 87
f 165/366/402 164/364/400 163/362/398 166/369/405
f 163/362/398 164/364/400 171/383/419 170/381/417
f 165/366/402 166/369/405 174/389/425 173/388/424
f 170/381/417 171/383/419 179/404/440 178/402/438
f 173/388/424 174/389/425 181/408/444 184/416/452
s 88
f 167/373/409 163/363/399 170/380/416 169/377/413
s 89
f 164/365/401 161/358/394 176/395/431 171/384/420
s 90
f 162/360/396 165/367/403 173/387/423 172/385/421
s 91
f 166/370/406 168/376/412 175/392/428 174/390/426
s 92
f 177/397/433 178/400/436 179/403/439 180/405/441
s 93
f 181/407/443 182/410/446 183/413/449 184/415/451
s 94
f 169/379/415 170/382/418 178/401/437 177/398/434
s 95
f 175/394/430 182/412/448 181/409/445 174/391/427
s 96
f 191/431/467 192/434/470 190/428/464 187/421/457
s 97
f 185/417/453 186/419/455 192/435/471 191/432/468
f 185/417/453 191/432/468 193/438/474 200/456/492
f 192/435/471 186/419/455 196/446/482 199/453/489
f 200/456/492 193/438/474 201/459/495 204/466/502
f 199/453/489 196/446/482 207/474/510 206/471/507
s 98
f 189/426/462 188/424/460 187/422/458 190/429/465
f 187/422/458 188/424/460 195/443/479 194/441/477
f 189/426/462 190/429/465 198/449/485 197/448/484
f 194/441/477 195/443/479 203/464/500 202/462/498
f 197/448/484 198/449/485 205/468/504 208/476/512
s 99
f 191/433/469 187/423/459 194/440/476 193/437/473
s 100
f 188/425/461 185/418/454 200/455/491 195/444/480
s 101
f 186/420/456 189/427/463 197/447/483 196/445/481
s 102
f 190/430/466 192/436/472 199/452/488 198/450/486
s 103
f 201/457/493 202/460/496 203/463/499 204/465/501
s 104
f 205/467/503 206/470/506 207/473/509 208/475/511
s 105
f 193/439/475 194/442/478 202/461/497 201/458/494
s 106
f 199/454/490 206/472/508 205/469/505 198/451/487
s 107
f 215/491/527 216/494/530 214/488/524 211/481/517
s 108
f 209/477/513 210/479/515 216/495/531 215/492/528
f 209/477/513 215/492/528 217/498/534 224/516/552
f 216/495/531 210/479/515 220/506/542 223/513/549
f 224/516/552 217/498/534 225/519/555 228/526/562
f 223/513/549 220/506/542 231/534/570 230/531/567
s 109
f 213/486/522 212/484/520 211/482/518 214/489/525
f 211/482/518 212/484/520 219/503/539 218/501/537
f 213/486/522 214/489/525 222/509/545 221/508/544
f 218/501/537 219/503/539 227/524/560 226/522/558
f 221/508/544 222/509/545 229/528/564 232/536/572
s 110
f 215/493/529 211/483/519 218/500/536 217/497/533
s 111
f 212/485/521 209/478/514 224/515/551 219/504/540
s 112
f 210/480/516 213/487/523 221/507/543 220/505/541
s 113
f 214/490/526 216/496/532 223/512/548 222/510/546
s 114
f 225/517/553 226/520/556 227/523/559 228/525/561
s 115
f 229/527/563 230/530/566 231/533/569 232/535/571
s 116
f 217/499/535 218/502/538 226/521/557 225/518/554
s 117
f 223/514/550 230/532/568 229/529/565 222/511/547
s 118
f 239/551/587 240/554/590 238/548/584 235/541/577
s 119
f 233/537/573 234/539/575 240/555/591 239/552/588
f 233/537/573 239/552/588 241/558/594 248/576/612
f 240/555/591 234/539/575 244/566/602 247/573/609
f 248/576/612 241/558/594 249/579/615 252/586/622
f 247/573/609 244/566/602 255/594/630 254/591/627
s 120
f 237/546/582 236/544/580 235/542/578 238/549/585
f 235/542/578 236/544/580 243/563/599 242/561/597
f 237/546/582 238/549/585 246/569/605 245/568/604
f 242/561/597 243/563/599 251/584/620 250/582/618
f 245/568/604 246/569/605 253/588/624 256/596/632
s 121
f 239/553/589 235/543/579 242/560/596 241/557/593
s 122
f 236/545/581 233/538/574 248/575/611 243/564/600
s 123
f 234/540/576 237/547/583 245/567/603 244/565/601
s 124
f 238/550/586 240/556/592 247/572/608 246/570/606
s 125
f 249/577/613 250/580/616 251/583/619 252/585/621
s 126
f 253/587/623 254/590/626 255/593/629 256/595/631
s 127
f 241/559/595 242/562/598 250/581/617 249/578/614
s 128
f 247/574/610 254/592/628 253/589/625 246/571/607

# 184 faces
